<?xml version="1.0" encoding="iso-8859-1"?>
<!-- Generator: Adobe Illustrator 17.1.0, SVG Export Plug-In . SVG Version: 6.00 Build 0)  -->
<!DOCTYPE svg PUBLIC "-//W3C//DTD SVG 1.1//EN" "http://www.w3.org/Graphics/SVG/1.1/DTD/svg11.dtd">
<svg version="1.1" id="Capa_1" xmlns="http://www.w3.org/2000/svg" xmlns:xlink="http://www.w3.org/1999/xlink" x="0px" y="0px"
	 viewBox="0 0 192.243 192.243" style="enable-background:new 0 0 192.243 192.243;" xml:space="preserve">
<path d="M186.728,45.976l-40.47-40.471C142.708,1.955,137.988,0,132.966,0c-5.021,0-9.741,1.955-13.292,5.505L99.43,25.75
	c-0.318,0.318-0.565,0.676-0.78,1.048c-0.372,0.214-0.73,0.461-1.048,0.779L8.906,116.275c-0.029,0.029-0.049,0.065-0.077,0.095
	c-0.172,0.181-0.329,0.374-0.472,0.578c-0.047,0.067-0.096,0.133-0.139,0.203c-0.152,0.242-0.29,0.492-0.399,0.758
	c-0.017,0.041-0.026,0.084-0.042,0.126c-0.087,0.228-0.156,0.463-0.209,0.705c-0.02,0.09-0.035,0.179-0.049,0.269
	c-0.014,0.086-0.037,0.168-0.047,0.255l-4.568,41.44c0,0,0,0,0,0l-2.865,25.992c-0.166,1.508,0.361,3.01,1.435,4.083
	c0.942,0.943,2.217,1.464,3.535,1.464c0.182,0,0.365-0.01,0.548-0.03l67.433-7.433c0.087-0.01,0.17-0.033,0.256-0.047
	c0.09-0.015,0.178-0.029,0.268-0.049c0.243-0.053,0.48-0.123,0.71-0.21c0.04-0.015,0.081-0.024,0.12-0.04
	c0.266-0.109,0.518-0.247,0.759-0.4c0.069-0.044,0.135-0.092,0.203-0.139c0.204-0.143,0.396-0.3,0.577-0.471
	c0.03-0.029,0.065-0.048,0.095-0.077l88.697-88.698c0.328-0.328,0.581-0.699,0.799-1.084c0.363-0.213,0.71-0.456,1.013-0.759
	l20.244-20.244c3.551-3.551,5.507-8.271,5.507-13.292S190.279,49.526,186.728,45.976z M32.838,179.145l-19.732-19.732l3.164-28.703
	l14.262,14.262c0.001,0.001,0.002,0.001,0.003,0.002l16.741,16.741c0.001,0.001,0.001,0.002,0.002,0.003l14.263,14.262
	L32.838,179.145z M50.813,151.112l-9.675-9.675l83.454-83.454l9.675,9.675L50.813,151.112z M179.658,65.489l-16.709,16.708
	l-52.912-52.912l16.708-16.709c1.662-1.662,3.871-2.577,6.222-2.577s4.56,0.915,6.222,2.577l40.47,40.471
	c1.661,1.662,2.577,3.871,2.577,6.221S181.319,63.828,179.658,65.489z"/>
<g>
</g>
<g>
</g>
<g>
</g>
<g>
</g>
<g>
</g>
<g>
</g>
<g>
</g>
<g>
</g>
<g>
</g>
<g>
</g>
<g>
</g>
<g>
</g>
<g>
</g>
<g>
</g>
<g>
</g>
</svg>
